<svg width="512" height="512" viewBox="0 0 512 512" fill="none" xmlns="http://www.w3.org/2000/svg" role="img" aria-labelledby="title desc">
  <title id="title">Project Forge Logo Placeholder</title>
  <desc id="desc">A simple placeholder mark for Project Forge showing a stylized forge anvil and signal lines.</desc>
  <rect width="512" height="512" rx="72" fill="#111827"/>
  <path d="M122 318H346C366 318 383 334 383 354V374H167C142 374 122 354 122 329V318Z" fill="#F8FAFC"/>
  <path d="M167 208H389C399 208 407 216 407 226V255C407 265 399 273 389 273H331L302 318H188L167 273H123C113 273 105 265 105 255V226C105 216 113 208 123 208H167Z" fill="#94A3B8"/>
  <path d="M175 151C209 123 251 110 300 112" stroke="#38BDF8" stroke-width="22" stroke-linecap="round"/>
  <path d="M211 178C237 159 267 151 303 153" stroke="#22C55E" stroke-width="18" stroke-linecap="round"/>
  <path d="M250 203C267 193 285 188 307 190" stroke="#F97316" stroke-width="14" stroke-linecap="round"/>
  <text x="256" y="433" text-anchor="middle" fill="#F8FAFC" font-family="Arial, Helvetica, sans-serif" font-size="42" font-weight="700">FORGE</text>
</svg>
